<?xml version="1.0" encoding="iso-8859-1"?>
<!-- Uploaded to: SVG Repo, www.svgrepo.com, Generator: SVG Repo Mixer Tools -->
<svg fill="#000000" height="800px" width="800px" version="1.1" id="Layer_1" xmlns="http://www.w3.org/2000/svg" xmlns:xlink="http://www.w3.org/1999/xlink" 
	 viewBox="0 0 512 512" xml:space="preserve">
<g transform="translate(1 1)">
	<g>
		<g>
			<path d="M169.667,195.267v-76.8c0-5.12-3.413-8.533-8.533-8.533H75.8c-5.12,0-8.533,3.413-8.533,8.533v76.8
				c-5.12,0-8.533,3.413-8.533,8.533s3.413,8.533,8.533,8.533H75.8h85.333h8.533c5.12,0,8.533-3.413,8.533-8.533
				S174.787,195.267,169.667,195.267z M152.6,152.6H127V127h25.6V152.6z M109.933,127v25.6h-25.6V127H109.933z M84.333,169.667h25.6
				v25.6h-25.6V169.667z M127,195.267v-25.6h25.6v25.6H127z"/>
			<path d="M340.333,357.4v76.8c-5.12,0-8.533,3.413-8.533,8.533s3.413,8.533,8.533,8.533h8.533H434.2h8.533
				c5.12,0,8.533-3.413,8.533-8.533s-3.413-8.533-8.533-8.533v-76.8c0-5.12-3.413-8.533-8.533-8.533h-85.333
				C343.747,348.867,340.333,352.28,340.333,357.4z M357.4,408.6H383v25.6h-25.6V408.6z M400.067,434.2v-25.6h25.6v25.6H400.067z
				 M425.667,391.533h-25.6v-25.6h25.6V391.533z M383,365.933v25.6h-25.6v-25.6H383z"/>
			<path d="M272.067,417.133h-8.533c-5.12,0-8.533,3.413-8.533,8.533s3.413,8.533,8.533,8.533h8.533c5.12,0,8.533-3.413,8.533-8.533
				S277.187,417.133,272.067,417.133z"/>
			<path d="M493.933,101.4V74.093C504.173,70.68,511,61.293,511,50.2V33.133c0-14.507-11.093-25.6-25.6-25.6H23.747
				C10.093,7.533-1,18.627-1,33.133V50.2c0,14.507,11.093,25.6,24.747,25.6H24.6v170.667c-14.507,0-25.6,11.093-25.6,25.6v17.067
				c0,14.507,11.093,25.6,25.6,25.6v179.2c0,5.12,3.413,8.533,8.533,8.533h179.2h85.333h179.2c5.12,0,8.533-3.413,8.533-8.533
				v-179.2c14.507,0,25.6-11.093,25.6-25.6v-17.067c0-14.507-11.093-25.6-25.6-25.6h-0.853V128.426
				C490.488,120.983,493.933,111.194,493.933,101.4z M357.4,195.267v-25.6H383v25.6H357.4z M357.4,152.6V127H383v25.6H357.4z
				 M400.067,169.667h25.6v25.6h-25.6V169.667z M425.667,152.6h-25.6V127h17.067c1.585,2.113,3.17,3.898,4.957,5.559
				c1.136,1.113,2.327,2.168,3.576,3.15V152.6z M16.067,50.2V33.133c0-4.267,3.413-8.533,7.68-8.533h462.507
				c4.267,0,7.68,3.413,7.68,8.533V50.2c0,5.12-3.413,8.533-8.533,8.533s-8.533,3.413-8.533,8.533V101.4
				c0,5.247-2.022,10.492-5.28,14.964c-0.539,0.362-1.062,0.765-1.546,1.249c-5.973,6.827-14.507,10.24-23.04,8.533
				c-2.755-0.394-5.364-1.306-7.764-2.615c-4.214-2.554-6.761-5.942-9.303-9.332c-0.221-0.331-0.457-0.646-0.706-0.946
				c-1.624-2.916-2.755-6.142-3.259-9.539c-0.038-0.276-0.077-0.551-0.107-0.83c-0.039-0.332-0.073-0.664-0.1-0.999
				c-0.054-0.724-0.094-1.452-0.094-2.192v-15.36c0-14.507-11.093-25.6-25.6-25.6h-59.733c-14.507,0-25.6,11.093-25.6,25.6v23.893
				c0,8.941-5.856,15.929-13.022,18.126c-1.538,0.384-3.08,0.599-4.538,0.63c-0.212-0.005-0.424-0.01-0.634-0.022
				c-9.243-0.995-15.939-9.44-15.939-18.734V84.333c0-14.507-11.093-25.6-25.6-25.6H92.867c-5.12,0-8.533,3.413-8.533,8.533v7.68
				c0,3.807-2.718,7.606-5.728,8.989c-0.873,0.25-1.824,0.343-2.805,0.376c-0.981-0.033-1.933-0.126-2.805-0.376
				c-3.01-1.382-5.728-5.182-5.728-8.989v-7.68c0-5.12-3.413-8.533-8.533-8.533h-25.6h-9.387C19.48,58.733,16.067,55.32,16.067,50.2
				z M220.867,195.267v-25.6h25.6v25.6H220.867z M267.8,127c1.431,2.385,3.068,4.493,4.861,6.364
				c0.364,0.445,0.734,0.884,1.112,1.316c4.313,4.313,9.649,7.259,15.36,8.632v9.288h-25.6V127H267.8z M246.467,152.6h-25.6V127
				h25.6V152.6z M263.533,169.667h25.6v25.6h-25.6V169.667z M41.667,314.733H50.2v41.813v0.853c0,7.68,3.413,14.507,9.387,19.627
				c2.166,2.166,4.792,3.714,7.68,4.723v52.45c-5.12,0-8.533,3.413-8.533,8.533s3.413,8.533,8.533,8.533H75.8h85.333h8.533
				c5.12,0,8.533-3.413,8.533-8.533s-3.413-8.533-8.533-8.533v-76.8c0-5.12-3.413-8.533-8.533-8.533H101.4v-34.133h68.267
				c5.12,0,8.533,4.267,8.533,8.533v23.893v1.707c0,9.387,4.267,18.773,10.24,25.6c4.313,4.313,9.649,7.259,15.36,8.632V485.4
				H41.667V314.733z M152.6,365.933v25.6H127v-25.6H152.6z M84.333,434.2v-25.6h25.6v25.6H84.333z M127,408.6h25.6v25.6H127V408.6z
				 M109.933,391.533h-25.6v-9.851c0.005-0.002,0.01-0.003,0.015-0.005c2.849-0.957,5.481-2.466,7.665-4.65
				c0.855-0.733,1.651-1.505,2.399-2.305c0.157-0.165,0.309-0.335,0.462-0.505c0.126-0.142,0.252-0.284,0.375-0.428
				c0.17-0.199,0.336-0.4,0.5-0.605c0.193-0.239,0.381-0.482,0.565-0.726c0.029-0.04,0.059-0.079,0.088-0.119
				c1.478-1.986,2.652-4.13,3.488-6.405h10.043V391.533z M220.867,485.4V382.754c4.675-1.291,8.976-3.634,12.663-6.761
				c0.936-0.728,1.837-1.519,2.697-2.379c0.114-0.114,0.222-0.237,0.334-0.352c2.243-2.189,4.152-4.652,5.639-7.328h46.933V485.4
				H220.867z M468.333,485.4H306.2v-128c0-5.12-3.413-8.533-8.533-8.533h-51.2v-0.853v-24.747c0-5.12,4.267-8.533,8.533-8.533
				h42.667v7.68v0.853c0,5.627,1.839,10.792,5.168,15.167c3.885,5.511,9.641,9.501,16.166,10.433
				c1.329,0.166,2.691,0.232,4.066,0.198c1.477,0.034,2.971-0.032,4.467-0.198c3.007-0.644,5.851-1.832,8.425-3.448
				c1.223-0.725,2.402-1.565,3.522-2.525c5.973-5.12,9.387-11.947,9.387-19.627v-0.853v-7.68h119.467V485.4z M493.933,272.92v17.067
				c0,4.267-3.413,8.533-8.533,8.533h-4.499c-1.169-0.55-2.525-0.853-4.035-0.853h-128c-9.387,0-17.067,7.68-17.067,17.067v0.853
				v6.827c0,4.267-2.56,8.533-6.827,9.387c-2.56,0.853-5.12,0-6.827-1.707c-0.858-0.572-1.51-1.246-2.017-1.978
				c-0.857-1.476-1.396-3.16-1.396-4.848c0,0,0,0,0-0.001v-7.68v-0.853c0-9.387-7.68-17.067-17.067-17.067H255
				c-14.507,0-25.6,11.947-25.6,25.6v0.853v23.04c0,10.121-7.504,17.729-15.917,18.729c-0.383,0.027-0.766,0.045-1.149,0.045
				c-0.728,0-1.416,0.076-2.07,0.209c-1.389-0.035-2.706-0.273-3.951-0.691c-6.619-2.89-11.045-9.884-11.045-17.439v-24.747
				c0-14.507-11.947-25.6-25.6-25.6H101.4c-9.387,0-17.067,7.68-17.067,17.067v41.813c0,3.807-2.718,7.606-5.728,8.989
				c-0.873,0.25-1.824,0.343-2.805,0.376c-0.981-0.033-1.933-0.126-2.805-0.376c-3.01-1.382-5.728-5.182-5.728-8.989v-41.813
				c0-9.387-7.68-17.067-17.067-17.067H33.133H24.6c-5.12,0-8.533-3.413-8.533-8.533v-17.067c0-5.12,3.413-8.533,8.533-8.533v0.853
				h460.8C489.667,264.387,493.933,267.8,493.933,272.92z M41.667,246.467V75.8H50.2c0,7.68,3.413,14.507,9.387,19.627
				c2.489,2.489,5.586,4.165,8.991,5.139c0.962,0.325,1.942,0.617,2.956,0.834c1.413,0.157,2.825,0.226,4.222,0.204
				c0.015,0,0.03,0,0.045,0c0.015,0,0.03,0,0.045,0c1.397,0.022,2.809-0.047,4.222-0.204c1.059-0.227,2.089-0.535,3.103-0.879
				c2.817-0.825,5.416-2.137,7.632-3.995c4.806-3.572,8.372-8.669,9.842-14.638c0.076-0.302,0.147-0.604,0.212-0.91
				c0.054-0.26,0.11-0.517,0.156-0.78c0.108-0.605,0.191-1.217,0.254-1.836c0.015-0.155,0.027-0.31,0.039-0.466
				c0.057-0.692,0.096-1.389,0.096-2.096H255c5.12,0,8.533,3.413,8.533,8.533v23.893v1.707h-51.2c-5.12,0-8.533,3.413-8.533,8.533
				v76.8c-5.12,0-8.533,3.413-8.533,8.533s3.413,8.533,8.533,8.533h8.533h85.333h8.533c5.12,0,8.533-3.413,8.533-8.533
				s-3.413-8.533-8.533-8.533v-52.3c0.602-0.166,1.197-0.353,1.787-0.554c4.886-1.565,9.53-4.195,13.573-7.733
				c5.973-6.827,10.24-15.36,10.24-24.747v-1.707V84.333c0-5.12,3.413-8.533,8.533-8.533h59.733c5.12,0,8.533,4.267,8.533,8.533
				v15.36v0.853c0,3.202,0.352,6.344,1.01,9.387h-60.743c-5.12,0-8.533,3.413-8.533,8.533v76.8c-5.12,0-8.533,3.413-8.533,8.533
				s3.413,8.533,8.533,8.533h8.533H434.2h8.533c5.12,0,8.533-3.413,8.533-8.533c0-4.829-3.039-8.137-7.68-8.497v-51.399
				c0.285,0.054,0.567,0.116,0.853,0.163c8.533,0.853,17.067,0,23.893-3.413v105.813H41.667z"/>
		</g>
	</g>
</g>
</svg>