<?xml version="1.0" ?>
<!-- Uploaded to: SVG Repo, www.svgrepo.com, Generator: SVG Repo Mixer Tools -->
<svg width="800px" height="800px" viewBox="0 0 64 64" id="svg5" version="1.1" xml:space="preserve" xmlns="http://www.w3.org/2000/svg" xmlns:inkscape="http://www.inkscape.org/namespaces/inkscape" xmlns:sodipodi="http://sodipodi.sourceforge.net/DTD/sodipodi-0.dtd" xmlns:svg="http://www.w3.org/2000/svg">
<defs id="defs2"/>
<g id="layer1" style="fill:#000000;fill-opacity:1" transform="translate(-288,-96)">
<path d="m 325,104 c -0.39688,-1.8e-4 -0.75632,0.23433 -0.91602,0.59766 l -8.70117,19.77539 -4.45898,-10.75586 C 310.76899,113.2436 310.40441,113.00003 310,113 c -0.40441,3e-5 -0.76899,0.2436 -0.92383,0.61719 l -17,41 c -0.27272,0.65844 0.21115,1.38271 0.92383,1.38281 10.4039,-0.11359 19.91043,0 32,0 h 22 c 0.72204,2.7e-4 1.20642,-0.74128 0.91602,-1.40234 l -22,-50 C 325.75632,104.23433 325.39688,103.99982 325,104 Z m 0,3.48438 9.91602,22.53515 -1.01758,2.54297 -1.00391,-2.00977 a 1.0001,1.0001 0 0 0 -1.85156,0.16016 l -2.13281,7.11328 -2.97071,-8.16797 a 1.0001,1.0001 0 0 0 -1.88867,0.0254 l -1.16797,3.50196 -1.96289,-4.58008 a 1.0001,1.0001 0 0 0 -0.97656,-0.60352 1.0001,1.0001 0 0 0 -0.90039,0.71094 l -2.14844,7.16016 -1.95898,-5.22461 a 1,1 0 0 0 -0.0801,-0.11133 z m -15,9.12695 4.26758,10.29492 -1.33594,3.03711 -2.07422,-3.45703 a 1.0001,1.0001 0 0 0 -0.79101,-0.48438 1.0001,1.0001 0 0 0 -0.84766,0.37305 l -3.14648,3.93164 -1.07813,-1.61914 z m -0.11719,12.13672 2.0625,3.4375 L 302.34766,154 h -7.84961 l 9.57422,-23.08984 1.0957,1.64453 a 1.0001,1.0001 0 0 0 1.61328,0.0703 z m 10.28321,3.17773 1.91406,4.46875 a 1.0001,1.0001 0 0 0 1.86914,-0.0781 l 1.0918,-3.27735 3.01953,8.30274 a 1.0001,1.0001 0 0 0 1.89648,-0.0547 l 2.27539,-7.58594 0.87305,1.7461 a 1.0001,1.0001 0 0 0 1.82226,-0.0762 l 1.11524,-2.78906 L 345.4668,154 H 325 304.5332 l 9.19141,-20.88867 2.33984,6.24023 a 1.0001,1.0001 0 0 0 1.89258,-0.0644 z" id="path26247" style="color:#000000;fill:#000000;fill-rule:evenodd;stroke-linecap:round;stroke-linejoin:round;stroke-miterlimit:4.1;-inkscape-stroke:none;fill-opacity:1"/>
<g id="path29262" style="fill:#000000;fill-opacity:1" transform="rotate(105,210.61979,277.81405)">
<path d="m 19.642578,233.93555 c -0.44991,0.12055 -0.707482,0.57349 -0.759766,0.79492 -0.05228,0.22143 -0.03485,0.34762 -0.02344,0.46289 0.02283,0.23054 0.0712,0.4115 0.130859,0.62109 0.119309,0.41919 0.293227,0.90753 0.466797,1.39453 0.04538,0.12733 0.07313,0.21919 0.117188,0.34375 0.0018,0.009 0.0041,0.0179 0.0059,0.0274 -0.0094,-0.002 -0.0179,-0.004 -0.02734,-0.006 -0.124559,-0.0441 -0.216424,-0.0718 -0.34375,-0.11719 -0.487001,-0.17357 -0.975345,-0.34749 -1.394531,-0.4668 -0.209593,-0.0597 -0.390557,-0.10802 -0.621094,-0.13086 -0.115268,-0.0114 -0.24146,-0.0288 -0.46289,0.0234 -0.22143,0.0523 -0.674369,0.30986 -0.794922,0.75977 -0.120553,0.44991 0.142971,0.90064 0.308594,1.05664 0.165622,0.15599 0.283139,0.2042 0.388671,0.25195 0.211066,0.0955 0.392176,0.14413 0.603516,0.19727 0.42268,0.10627 0.930913,0.19783 1.439453,0.29101 0.131019,0.024 0.22347,0.0465 0.351563,0.0703 0.01122,0.004 0.022,0.006 0.0332,0.01 -0.0083,0.01 -0.01705,0.0176 -0.02539,0.0273 -0.09842,0.0841 -0.166781,0.14864 -0.267578,0.23438 -0.393816,0.33497 -0.786692,0.66928 -1.099609,0.97266 -0.156459,0.15168 -0.290741,0.28442 -0.425782,0.47265 -0.06752,0.0941 -0.143548,0.19421 -0.208984,0.41211 -0.06544,0.21791 -0.06959,0.739 0.259766,1.06836 0.329357,0.32936 0.850453,0.3252 1.068359,0.25977 0.217906,-0.0654 0.317992,-0.14147 0.412109,-0.20899 0.188235,-0.13504 0.320971,-0.26932 0.472657,-0.42578 0.303371,-0.31292 0.637686,-0.70579 0.972656,-1.09961 0.08573,-0.10079 0.150273,-0.16915 0.234375,-0.26758 0.0097,-0.008 0.01763,-0.0171 0.02734,-0.0254 0.0039,0.0112 0.0058,0.022 0.0098,0.0332 0.02378,0.12809 0.04631,0.22054 0.07031,0.35156 0.09318,0.50854 0.184747,1.01677 0.291015,1.43945 0.05313,0.21134 0.101771,0.39245 0.197266,0.60352 0.04775,0.10553 0.09596,0.22305 0.251953,0.38867 0.155995,0.16562 0.60673,0.42915 1.056641,0.30859 0.44991,-0.12055 0.707482,-0.57349 0.759765,-0.79492 0.05228,-0.22143 0.03485,-0.34762 0.02344,-0.46289 -0.02283,-0.23054 -0.0712,-0.4115 -0.130859,-0.62109 -0.119309,-0.41919 -0.293227,-0.90753 -0.466797,-1.39453 -0.04538,-0.12733 -0.07313,-0.21919 -0.117188,-0.34375 -0.0018,-0.009 -0.0041,-0.0179 -0.0059,-0.0274 0.0094,0.002 0.0179,0.004 0.02734,0.006 0.124559,0.0441 0.216424,0.0718 0.34375,0.11719 0.487001,0.17357 0.975345,0.34749 1.394531,0.4668 0.209593,0.0597 0.390557,0.10802 0.621094,0.13085 0.115268,0.0114 0.24146,0.0288 0.46289,-0.0234 0.22143,-0.0523 0.674369,-0.30986 0.794922,-0.75977 0.120553,-0.44991 -0.142971,-0.90064 -0.308594,-1.05664 -0.165622,-0.15599 -0.283139,-0.2042 -0.388672,-0.25195 -0.211065,-0.0955 -0.392175,-0.14413 -0.603515,-0.19727 -0.42268,-0.10627 -0.930913,-0.19783 -1.439453,-0.29101 -0.131019,-0.024 -0.22347,-0.0465 -0.351563,-0.0703 -0.01122,-0.004 -0.022,-0.006 -0.0332,-0.01 0.0083,-0.01 0.01705,-0.0176 0.02539,-0.0273 0.09842,-0.0841 0.166781,-0.14863 0.267578,-0.23437 0.393816,-0.33497 0.786692,-0.66928 1.099609,-0.97266 0.156459,-0.15168 0.290741,-0.28442 0.425781,-0.47265 0.06752,-0.0941 0.143549,-0.19421 0.208985,-0.41211 0.06544,-0.21791 0.06959,-0.739 -0.259766,-1.06836 -0.329357,-0.32936 -0.850453,-0.3252 -1.068359,-0.25977 -0.217906,0.0654 -0.317992,0.14147 -0.41211,0.20899 -0.188234,0.13504 -0.32097,0.26932 -0.472656,0.42578 -0.303371,0.31292 -0.637686,0.70579 -0.972656,1.09961 -0.08573,0.10079 -0.150273,0.16915 -0.234375,0.26758 -0.0097,0.008 -0.01763,0.0171 -0.02734,0.0254 -0.0039,-0.0112 -0.0058,-0.022 -0.0098,-0.0332 -0.02378,-0.12809 -0.04631,-0.22054 -0.07031,-0.35156 -0.09318,-0.50854 -0.184747,-1.01677 -0.291016,-1.43945 -0.05313,-0.21134 -0.10177,-0.39245 -0.197265,-0.60352 -0.04775,-0.10553 -0.09596,-0.22305 -0.251953,-0.38867 -0.155995,-0.16562 -0.60673,-0.42915 -1.056641,-0.30859 z" id="path67503" style="color:#000000;fill:#000000;fill-rule:evenodd;stroke-linecap:round;stroke-linejoin:round;stroke-miterlimit:4.1;-inkscape-stroke:none;fill-opacity:1"/>
</g>
<g id="path29264" style="fill:#000000;fill-opacity:1" transform="rotate(135,208.55754,242.05102)">
<path d="m 19.642578,233.93555 c -0.44991,0.12055 -0.707482,0.57349 -0.759766,0.79492 -0.05228,0.22143 -0.03485,0.34762 -0.02344,0.46289 0.02283,0.23054 0.0712,0.4115 0.130859,0.62109 0.119309,0.41919 0.293227,0.90753 0.466797,1.39453 0.04538,0.12733 0.07313,0.21919 0.117188,0.34375 0.0018,0.009 0.0041,0.0179 0.0059,0.0274 -0.0094,-0.002 -0.0179,-0.004 -0.02734,-0.006 -0.124559,-0.0441 -0.216424,-0.0718 -0.34375,-0.11719 -0.487001,-0.17357 -0.975345,-0.34749 -1.394531,-0.4668 -0.209593,-0.0597 -0.390557,-0.10802 -0.621094,-0.13086 -0.115268,-0.0114 -0.24146,-0.0288 -0.46289,0.0234 -0.22143,0.0523 -0.674369,0.30986 -0.794922,0.75977 -0.120553,0.44991 0.142971,0.90064 0.308594,1.05664 0.165622,0.15599 0.283139,0.2042 0.388671,0.25195 0.211066,0.0955 0.392176,0.14413 0.603516,0.19727 0.42268,0.10627 0.930913,0.19783 1.439453,0.29101 0.131019,0.024 0.22347,0.0465 0.351563,0.0703 0.01122,0.004 0.022,0.006 0.0332,0.01 -0.0083,0.01 -0.01705,0.0176 -0.02539,0.0273 -0.09842,0.0841 -0.166781,0.14864 -0.267578,0.23438 -0.393816,0.33497 -0.786692,0.66928 -1.099609,0.97266 -0.156459,0.15168 -0.290741,0.28442 -0.425782,0.47265 -0.06752,0.0941 -0.143548,0.19421 -0.208984,0.41211 -0.06544,0.21791 -0.06959,0.739 0.259766,1.06836 0.329357,0.32936 0.850453,0.3252 1.068359,0.25977 0.217906,-0.0654 0.317992,-0.14147 0.412109,-0.20899 0.188235,-0.13504 0.320971,-0.26932 0.472657,-0.42578 0.303371,-0.31292 0.637686,-0.70579 0.972656,-1.09961 0.08573,-0.10079 0.150273,-0.16915 0.234375,-0.26758 0.0097,-0.008 0.01763,-0.0171 0.02734,-0.0254 0.0039,0.0112 0.0058,0.022 0.0098,0.0332 0.02378,0.12809 0.04631,0.22054 0.07031,0.35156 0.09318,0.50854 0.184747,1.01677 0.291015,1.43945 0.05313,0.21134 0.101771,0.39245 0.197266,0.60352 0.04775,0.10553 0.09596,0.22305 0.251953,0.38867 0.155995,0.16562 0.60673,0.42915 1.056641,0.30859 0.44991,-0.12055 0.707482,-0.57349 0.759765,-0.79492 0.05228,-0.22143 0.03485,-0.34762 0.02344,-0.46289 -0.02283,-0.23054 -0.0712,-0.4115 -0.130859,-0.62109 -0.119309,-0.41919 -0.293227,-0.90753 -0.466797,-1.39453 -0.04538,-0.12733 -0.07313,-0.21919 -0.117188,-0.34375 -0.0018,-0.009 -0.0041,-0.0179 -0.0059,-0.0274 0.0094,0.002 0.0179,0.004 0.02734,0.006 0.124559,0.0441 0.216424,0.0718 0.34375,0.11719 0.487001,0.17357 0.975345,0.34749 1.394531,0.4668 0.209593,0.0597 0.390557,0.10802 0.621094,0.13085 0.115268,0.0114 0.24146,0.0288 0.46289,-0.0234 0.22143,-0.0523 0.674369,-0.30986 0.794922,-0.75977 0.120553,-0.44991 -0.142971,-0.90064 -0.308594,-1.05664 -0.165622,-0.15599 -0.283139,-0.2042 -0.388672,-0.25195 -0.211065,-0.0955 -0.392175,-0.14413 -0.603515,-0.19727 -0.42268,-0.10627 -0.930913,-0.19783 -1.439453,-0.29101 -0.131019,-0.024 -0.22347,-0.0465 -0.351563,-0.0703 -0.01122,-0.004 -0.022,-0.006 -0.0332,-0.01 0.0083,-0.01 0.01705,-0.0176 0.02539,-0.0273 0.09842,-0.0841 0.166781,-0.14863 0.267578,-0.23437 0.393816,-0.33497 0.786692,-0.66928 1.099609,-0.97266 0.156459,-0.15168 0.290741,-0.28442 0.425781,-0.47265 0.06752,-0.0941 0.143549,-0.19421 0.208985,-0.41211 0.06544,-0.21791 0.06959,-0.739 -0.259766,-1.06836 -0.329357,-0.32936 -0.850453,-0.3252 -1.068359,-0.25977 -0.217906,0.0654 -0.317992,0.14147 -0.41211,0.20899 -0.188234,0.13504 -0.32097,0.26932 -0.472656,0.42578 -0.303371,0.31292 -0.637686,0.70579 -0.972656,1.09961 -0.08573,0.10079 -0.150273,0.16915 -0.234375,0.26758 -0.0097,0.008 -0.01763,0.0171 -0.02734,0.0254 -0.0039,-0.0112 -0.0058,-0.022 -0.0098,-0.0332 -0.02378,-0.12809 -0.04631,-0.22054 -0.07031,-0.35156 -0.09318,-0.50854 -0.184747,-1.01677 -0.291016,-1.43945 -0.05313,-0.21134 -0.10177,-0.39245 -0.197265,-0.60352 -0.04775,-0.10553 -0.09596,-0.22305 -0.251953,-0.38867 -0.155995,-0.16562 -0.60673,-0.42915 -1.056641,-0.30859 z" id="path67497" style="color:#000000;fill:#000000;fill-rule:evenodd;stroke-linecap:round;stroke-linejoin:round;stroke-miterlimit:4.1;fill-opacity:1"/>
</g>
<g id="g29286" style="fill:#000000;fill-opacity:1" transform="translate(-16.576265,-97.729725)">
<path d="m 310,220 v 0" id="path29282" style="color:#000000;fill:#000000;fill-rule:evenodd;stroke-width:2;stroke-linecap:round;stroke-linejoin:round;stroke-miterlimit:4.1;-inkscape-stroke:none;fill-opacity:1"/>
<path d="m 310,219 a 1,1 0 0 0 -1,1 1,1 0 0 0 1,1 1,1 0 0 0 1,-1 1,1 0 0 0 -1,-1 z" id="path29284" style="color:#000000;fill:#000000;fill-rule:evenodd;stroke-linecap:round;stroke-linejoin:round;stroke-miterlimit:4.1;-inkscape-stroke:none;fill-opacity:1"/>
</g>
<g id="g29294" style="fill:#000000;fill-opacity:1" transform="translate(-8.9912983,-105.27593)">
<path d="m 310,220 v 0" id="path29290" style="color:#000000;fill:#000000;fill-rule:evenodd;stroke-width:2;stroke-linecap:round;stroke-linejoin:round;stroke-miterlimit:4.1;-inkscape-stroke:none;fill-opacity:1"/>
<path d="m 310,219 a 1,1 0 0 0 -1,1 1,1 0 0 0 1,1 1,1 0 0 0 1,-1 1,1 0 0 0 -1,-1 z" id="path29292" style="color:#000000;fill:#000000;fill-rule:evenodd;stroke-linecap:round;stroke-linejoin:round;stroke-miterlimit:4.1;-inkscape-stroke:none;fill-opacity:1"/>
</g>
<g id="g29300" style="fill:#000000;fill-opacity:1" transform="translate(1.5400758,-115.17008)">
<path d="m 310,220 v 0" id="path29296" style="color:#000000;fill:#000000;fill-rule:evenodd;stroke-width:2;stroke-linecap:round;stroke-linejoin:round;stroke-miterlimit:4.1;-inkscape-stroke:none;fill-opacity:1"/>
<path d="m 310,219 a 1,1 0 0 0 -1,1 1,1 0 0 0 1,1 1,1 0 0 0 1,-1 1,1 0 0 0 -1,-1 z" id="path29298" style="color:#000000;fill:#000000;fill-rule:evenodd;stroke-linecap:round;stroke-linejoin:round;stroke-miterlimit:4.1;-inkscape-stroke:none;fill-opacity:1"/>
</g>
<g id="g29306" style="fill:#000000;fill-opacity:1" transform="translate(26.649634,-117.42357)">
<path d="m 310,220 v 0" id="path29302" style="color:#000000;fill:#000000;fill-rule:evenodd;stroke-width:2;stroke-linecap:round;stroke-linejoin:round;stroke-miterlimit:4.1;-inkscape-stroke:none;fill-opacity:1"/>
<path d="m 310,219 a 1,1 0 0 0 -1,1 1,1 0 0 0 1,1 1,1 0 0 0 1,-1 1,1 0 0 0 -1,-1 z" id="path29304" style="color:#000000;fill:#000000;fill-rule:evenodd;stroke-linecap:round;stroke-linejoin:round;stroke-miterlimit:4.1;-inkscape-stroke:none;fill-opacity:1"/>
</g>
<g id="g29312" style="fill:#000000;fill-opacity:1" transform="translate(37.041847,-86.615245)">
<path d="m 310,220 v 0" id="path29308" style="color:#000000;fill:#000000;fill-rule:evenodd;stroke-width:2;stroke-linecap:round;stroke-linejoin:round;stroke-miterlimit:4.1;-inkscape-stroke:none;fill-opacity:1"/>
<path d="m 310,219 a 1,1 0 0 0 -1,1 1,1 0 0 0 1,1 1,1 0 0 0 1,-1 1,1 0 0 0 -1,-1 z" id="path29310" style="color:#000000;fill:#000000;fill-rule:evenodd;stroke-linecap:round;stroke-linejoin:round;stroke-miterlimit:4.1;-inkscape-stroke:none;fill-opacity:1"/>
</g>
<g id="g30164" style="fill:#000000;fill-opacity:1" transform="translate(29.40288,-97.125728)">
<path d="m 310,220 v 0" id="path30160" style="color:#000000;fill:#000000;fill-rule:evenodd;stroke-width:2;stroke-linecap:round;stroke-linejoin:round;stroke-miterlimit:4.1;-inkscape-stroke:none;fill-opacity:1"/>
<path d="m 310,219 a 1,1 0 0 0 -1,1 1,1 0 0 0 1,1 1,1 0 0 0 1,-1 1,1 0 0 0 -1,-1 z" id="path30162" style="color:#000000;fill:#000000;fill-rule:evenodd;stroke-linecap:round;stroke-linejoin:round;stroke-miterlimit:4.1;-inkscape-stroke:none;fill-opacity:1"/>
</g>
</g>
</svg>